<?xml version="1.0" encoding="utf-8"?>
<!-- Generator: Adobe Illustrator 15.0.0, SVG Export Plug-In . SVG Version: 6.00 Build 0)  -->
<!DOCTYPE svg PUBLIC "-//W3C//DTD SVG 1.0//EN" "http://www.w3.org/TR/2001/REC-SVG-20010904/DTD/svg10.dtd">
<svg version="1.0" id="Layer_1" xmlns="http://www.w3.org/2000/svg" xmlns:xlink="http://www.w3.org/1999/xlink" x="0px" y="0px"
	 width="166.5px" height="39.75px" viewBox="0 0 166.5 39.75" enable-background="new 0 0 166.5 39.75" xml:space="preserve">
<g>
	<path fill="#B62025" d="M98.881,32.733l-0.613-2.285l-0.527-2.109l-0.703-2.194l-0.088-0.703l-0.352-0.97l-0.173-0.522l1.143-0.354
		l1.052-0.352l0.967-0.438l0.703-0.529l0.703-0.701l0.527-0.703l0.525-0.706l0.352-0.791l0.266-0.876l0.352-0.879l0.088-0.791v-1.67
		l-0.176-0.967l-0.264-0.876l-0.352-0.882l-0.527-0.876l-0.615-0.791l-0.791-0.703l-0.791-0.703l-0.967-0.525l-1.143-0.354
		l-1.23-0.264l-1.491-0.173H79.643l-0.176,1.14l-0.264,1.228l-0.264,1.058l-0.264,1.23h2.811l-0.525,2.106l-0.439,2.197
		l-1.055,4.393h3.867l-0.178,0.879l-0.174,0.791l-0.266,0.881l-0.174,0.874h-3.867l-0.439,2.021l-0.352,1.934l-0.527,1.934
		l-0.439,2.021h-2.897l-0.267,1.14l-0.261,1.055l-0.264,1.23l-0.352,1.055h14.406l0.267-1.055l0.264-1.23l0.349-1.055l0.264-1.14
		h-4.216l0.527-2.194l0.352-2.112l0.615-2.109l0.439-2.019h4.043l0.788,3.337l0.791,3.076l0.791,3.337l0.879,3.164h8.874
		l0.174-1.055l0.352-1.23l0.266-1.055l0.264-1.14H98.881z M90.097,20.519h-3.164l0.442-1.846l0.439-2.019l0.612-2.019l0.439-1.934
		h3.779l0.437,0.085h0.53l0.352,0.179l0.349,0.261l0.352,0.267l0.267,0.264l0.264,0.349l0.176,0.352l0.085,0.527l0.091,0.442v1.403
		l-0.176,0.703l-0.176,0.615l-0.703,1.055l-0.527,0.352l-0.527,0.352l-0.527,0.261l-0.703,0.179l-0.615,0.088l-0.703,0.085H90.097"
		/>
	<path fill="#B62025" d="M70.508,21.398h2.985l-0.179-1.492l-0.349-1.321l-0.527-1.316l-0.7-1.14l-0.706-0.882l-0.876-0.879
		l-0.97-0.791l-1.14-0.527l-1.143-0.437l-1.318-0.439l-1.318-0.088l-1.404-0.091l-1.23,0.091l-1.23,0.088l-1.318,0.352l-1.143,0.439
		l-1.055,0.524l-1.052,0.706l-0.879,0.876l-0.791,1.058l-0.703,1.052l-0.527,1.23l-0.352,1.407l-0.174,1.58h3.865l-0.267,0.879
		l-0.173,0.879l-0.176,0.879l-0.176,0.791h-2.9l0.352,1.318l0.352,1.23l0.615,1.052l0.703,0.879l0.703,0.967l0.879,0.703l0.876,0.7
		l1.146,0.618l1.052,0.439l1.143,0.264l1.23,0.176l1.23,0.085l1.404-0.085l1.23-0.176l1.228-0.352l1.058-0.439l0.964-0.615
		l1.058-0.706l0.791-0.7l0.7-0.967l0.615-0.876l0.615-1.143l0.439-1.055l0.349-1.318h-3.601l0.176-0.791l0.179-0.879l0.261-0.879
		L70.508,21.398z M62.863,28.251l-0.615-0.088l-0.53-0.085l-0.437-0.179l-0.439-0.261l-0.439-0.439l-0.352-0.439l-0.352-0.53
		l-0.176-0.524l-0.352-0.703l-0.176-1.406l-0.088-0.879l0.176-1.758l0.088-0.7l0.176-0.618l0.352-0.703l0.352-0.525l0.352-0.266
		l0.352-0.437l0.352-0.352l0.612-0.176l0.53-0.088l0.615-0.173l0.703,0.173l0.525,0.088l0.527,0.176l0.439,0.264l0.439,0.352
		l0.352,0.439l0.264,0.525l0.261,0.618l0.267,0.612l0.085,0.703l0.179,0.879v1.755l-0.179,0.706l-0.085,0.703l-0.267,0.791
		L65.85,26.76l-0.352,0.439l-0.439,0.439l-0.439,0.261l-0.527,0.179l-0.525,0.085L62.863,28.251"/>
	<path fill="#B62025" d="M21.831,3.476H6.634L6.282,4.794l-0.264,1.23L5.667,7.253L5.403,8.571h3.867v12.915h3.601l-0.264,0.791
		l-0.176,0.879l-0.264,0.791l-0.088,0.967h-2.81v2.897H6.546l-0.264,1.23l-0.264,1.23l-0.352,1.23l-0.264,1.23H19.9l0.349-1.23
		l0.267-1.23l0.264-1.23l0.261-1.23h-4.567v-5.622h4.658l1.758-0.088l1.491-0.352l1.406-0.352l1.143-0.701l1.14-0.703l0.791-0.791
		l0.791-0.967l0.527-1.055l0.352-1.052l0.439-1.143l0.176-1.058v-1.143l-0.085-1.14l-0.178-1.055L30.442,9.45l-0.439-1.052
		l-0.525-1.057l-0.706-0.876l-0.876-0.791l-1.057-0.706l-1.052-0.613l-1.143-0.439L23.24,3.652L21.831,3.476z M18.494,17.182h-2.021
		v-8.61h3.516L21.04,8.75l0.527,0.261l0.439,0.352l0.352,0.264l0.352,0.439l0.352,0.527l0.179,0.524l0.173,0.53l0.088,0.527
		l0.088,0.791v0.524l-0.176,0.706l-0.085,0.612l-0.267,0.53l-0.264,0.437l-0.439,0.354l-0.527,0.261l-0.352,0.264l-0.7,0.267
		l-0.53,0.085l-0.876,0.176H18.494"/>
	<polygon fill="#B62025" points="49.946,12.175 49.155,12.175 48.278,12.348 47.573,12.438 46.872,12.787 46.257,13.139 
		45.554,13.578 45.026,14.108 44.499,14.721 44.06,15.336 43.623,15.951 43.271,16.83 42.917,17.619 42.744,17.619 42.744,12.438 
		34.834,12.438 34.485,13.669 34.222,14.812 33.87,15.951 33.694,17.182 37.034,17.182 37.034,21.488 40.723,21.488 40.547,22.277 
		40.371,23.156 40.107,24.035 39.932,24.914 37.034,24.914 37.034,28.163 34.395,28.163 34.043,29.303 33.87,30.445 33.519,31.588 
		33.252,32.73 46.784,32.73 47.048,31.588 47.312,30.445 47.573,29.303 47.839,28.163 43.532,28.163 43.532,24.914 43.708,24.035 
		43.884,22.98 44.147,22.191 44.499,21.4 44.938,20.61 45.554,19.907 46.081,19.379 46.608,18.94 47.222,18.676 48.013,18.324 
		49.333,18.324 49.772,16.83 50.122,15.251 50.562,13.669 51.089,12.175 	"/>
	<path fill="#B62025" d="M124.625,21.486l-0.261-0.876l-0.352-0.706l-0.53-0.703l-0.527-0.525l-0.612-0.527l-0.791-0.439
		l-0.703-0.352l-0.879-0.439l-0.967-0.088l-1.055-0.176l-1.23-0.176h-2.898l-0.53,0.176h-0.964l-0.527,0.176l-0.439,0.088
		l-0.437,0.088l-0.354,0.176l-0.437,0.176l-0.354,0.088v0.173l0.088,0.352v0.178l0.267,0.792l0.173,0.791l0.179,0.7l0.085,0.439
		l0.088,0.352l0.091,0.44v0.09l0.085,0.174v0.088l0.527-0.352l0.439-0.176l0.176-0.264l0.352-0.173l0.264-0.091l0.352-0.088h0.264
		l0.352-0.176l0.264-0.085h1.318l0.525,0.085l0.881,0.354l0.439,0.351l0.352,0.262l0.35,0.264l0.264,0.439l0.088,0.352l0.176,0.439
		l0.176,0.527v1.143l-0.439-0.091l-0.525-0.085l-0.352-0.088l-0.354-0.088l-0.264-0.088h-0.613l-0.439-0.091h-1.143l-0.439,0.091
		l-1.23,0.088l-1.055,0.176l-0.967,0.349l-0.791,0.439l-0.788,0.53l-0.794,0.7l-0.612,0.703l-0.439,0.791l-0.442,0.879l-0.261,0.879
		l-0.179,0.967v1.843l0.179,0.879L106.7,34.4l0.354,0.53l0.437,0.7l0.53,0.439l0.527,0.439l0.791,0.439l0.791,0.176l0.791,0.352
		h0.964l1.055,0.176h0.527l0.439-0.176h0.877l0.529-0.264l0.35-0.088l0.529-0.176l0.352-0.176l0.439-0.264l0.439-0.088l0.525-0.439
		l0.439-0.264v1.494h9.574l0.267-1.052l0.264-1.23l0.261-1.143l0.267-1.23h-4.131v-7.644h-3.867l0.352-0.791l0.179-0.967
		l0.261-0.879l0.179-0.791H124.625z M118.388,31.415l-0.439,0.352l-0.264,0.439l-0.439,0.173l-0.352,0.352l-0.701,0.352
		l-0.264,0.176l-0.266,0.091l-0.35,0.088l-0.352,0.085h-1.055l-0.352-0.085l-0.352-0.088l-0.354-0.091l-0.352-0.261l-0.349-0.267
		l-0.264-0.264l-0.088-0.261l-0.264-0.267l-0.088-0.352l-0.088-0.349v-0.791l0.088-0.264l0.088-0.352l0.264-0.176l0.176-0.352
		l0.176-0.264l0.439-0.176l0.352-0.176l0.349-0.264h0.442l0.439-0.085h1.23l0.262,0.085h0.703l0.266,0.176l0.352,0.088l0.262,0.176
		l0.439,0.176l0.264,0.176l0.439,0.176V31.415"/>
	<polygon fill="#B62025" points="138.243,14.721 138.595,14.721 139.125,14.636 139.562,14.457 139.998,14.196 140.353,13.93 
		140.704,13.666 141.056,13.317 141.229,12.966 141.407,12.436 141.671,12.084 141.759,11.56 141.759,10.681 141.671,10.153 
		141.407,9.714 141.229,9.362 141.056,8.923 140.704,8.659 140.353,8.22 139.998,8.046 139.562,7.956 139.125,7.695 137.279,7.695 
		136.84,7.956 136.399,8.046 136.048,8.22 135.696,8.659 135.343,8.923 135.081,9.362 134.991,9.714 134.817,10.153 134.729,10.681 
		134.64,11.12 134.729,11.56 134.817,12.084 134.991,12.436 135.081,12.966 135.343,13.317 135.696,13.666 136.048,13.93 
		136.399,14.196 136.84,14.457 137.279,14.636 137.716,14.721 	"/>
	<polygon fill="#B62025" points="141.319,32.558 141.319,16.918 132.972,16.918 132.887,18.058 132.535,19.201 132.269,20.343 
		132.005,21.486 138.858,21.486 138.771,22.277 138.419,23.156 138.334,24.123 138.067,24.914 134.817,24.914 134.817,32.558 
		132.972,32.558 132.708,33.788 132.181,36.07 131.917,37.213 144.568,37.213 144.923,36.07 145.096,34.931 145.274,33.788 
		145.623,32.558 	"/>
	<polygon fill="#B62025" points="158.187,32.643 158.187,8.308 149.752,8.308 149.225,10.59 148.963,11.647 148.699,12.79 
		151.686,12.79 151.686,21.486 155.553,21.486 155.377,22.365 155.11,23.156 154.938,24.12 154.671,24.911 151.686,24.911 
		151.686,32.643 149.752,32.643 149.402,33.788 149.225,35.016 148.963,36.158 148.699,37.213 161.087,37.213 161.438,36.158 
		161.611,35.016 161.963,33.788 162.142,32.643 	"/>
</g>
</svg>
