<svg width="58" height="26" viewBox="0 0 58 26" fill="none" xmlns="http://www.w3.org/2000/svg">
<path d="M56 11.3141C56.9311 11.3141 57.6859 12.0689 57.6859 13C57.6859 13.9311 56.9311 14.6859 56 14.6859V11.3141ZM0.807922 14.1921C0.149555 13.5337 0.149555 12.4663 0.807922 11.8079L11.5366 1.07921C12.195 0.420842 13.2624 0.420842 13.9208 1.07921C14.5792 1.73758 14.5792 2.805 13.9208 3.46337L4.38416 13L13.9208 22.5366C14.5792 23.195 14.5792 24.2624 13.9208 24.9208C13.2624 25.5792 12.195 25.5792 11.5366 24.9208L0.807922 14.1921ZM56 14.6859L2 14.6859V11.3141L56 11.3141V14.6859Z" fill="#CCC9CB"/>
</svg>
