<svg width="58" height="26" viewBox="0 0 58 26" fill="none" xmlns="http://www.w3.org/2000/svg">
<path d="M2 11.3141C1.06893 11.3141 0.314146 12.0689 0.314146 13C0.314146 13.9311 1.06893 14.6859 2 14.6859V11.3141ZM57.1921 14.1921C57.8504 13.5337 57.8504 12.4663 57.1921 11.8079L46.4634 1.07921C45.805 0.420842 44.7376 0.420842 44.0792 1.07921C43.4208 1.73758 43.4208 2.805 44.0792 3.46337L53.6158 13L44.0792 22.5366C43.4208 23.195 43.4208 24.2624 44.0792 24.9208C44.7376 25.5792 45.805 25.5792 46.4634 24.9208L57.1921 14.1921ZM2 14.6859L56 14.6859V11.3141L2 11.3141V14.6859Z" fill="#CCC9CB"/>
</svg>
