<svg width="111" height="111" viewBox="0 0 111 111" fill="none" xmlns="http://www.w3.org/2000/svg">
<path d="M55.19 110.38C85.6706 110.38 110.38 85.6706 110.38 55.19C110.38 24.7094 85.6706 0 55.19 0C24.7094 0 0 24.7094 0 55.19C0 85.6706 24.7094 110.38 55.19 110.38Z" fill="#151724"/>
<path d="M87.81 71.32C87.81 87.94 72.56 101.8 55.18 101.8C37.8 101.8 22.55 87.95 22.55 71.32C22.55 54.69 37.16 41.22 55.18 41.22C73.2 41.22 87.81 54.7 87.81 71.32Z" fill="url(#paint0_linear_2336_1390)"/>
<path d="M47.64 48.61C55.974 48.61 62.73 42.3957 62.73 34.73C62.73 27.0643 55.974 20.85 47.64 20.85C39.306 20.85 32.55 27.0643 32.55 34.73C32.55 42.3957 39.306 48.61 47.64 48.61Z" fill="#EBD8D8"/>
<path d="M62.73 48.61C71.064 48.61 77.82 42.3957 77.82 34.73C77.82 27.0643 71.064 20.85 62.73 20.85C54.396 20.85 47.64 27.0643 47.64 34.73C47.64 42.3957 54.396 48.61 62.73 48.61Z" fill="#EBD8D8"/>
<path d="M80.79 62.22C80.79 73.82 69.24 84.94 55.1 84.94C40.96 84.94 29.59 73.82 29.59 62.22C29.59 50.62 41.05 41.21 55.19 41.21C69.33 41.21 80.79 50.61 80.79 62.22Z" fill="#151724"/>
<path d="M44.84 37.82C47.5462 37.82 49.74 35.6262 49.74 32.92C49.74 30.2138 47.5462 28.02 44.84 28.02C42.1338 28.02 39.94 30.2138 39.94 32.92C39.94 35.6262 42.1338 37.82 44.84 37.82Z" fill="#151724"/>
<path d="M65.54 37.82C68.2462 37.82 70.44 35.6262 70.44 32.92C70.44 30.2138 68.2462 28.02 65.54 28.02C62.8338 28.02 60.64 30.2138 60.64 32.92C60.64 35.6262 62.8338 37.82 65.54 37.82Z" fill="#151724"/>
<path d="M74.11 59.9899C74.11 68.7299 65.57 77.0999 55.12 77.0999C44.67 77.0999 36.26 68.7199 36.26 59.9899C36.26 51.2599 44.73 44.1699 55.18 44.1699C65.63 44.1699 74.1 51.2499 74.1 59.9899H74.11Z" fill="#EBD8D8"/>
<path d="M52.88 53.71C54.5037 53.71 55.82 52.3937 55.82 50.77C55.82 49.1462 54.5037 47.83 52.88 47.83C51.2563 47.83 49.94 49.1462 49.94 50.77C49.94 52.3937 51.2563 53.71 52.88 53.71Z" fill="#151724"/>
<path d="M54.96 55.7899C56.5837 55.7899 57.9 54.4736 57.9 52.8499C57.9 51.2262 56.5837 49.9099 54.96 49.9099C53.3363 49.9099 52.02 51.2262 52.02 52.8499C52.02 54.4736 53.3363 55.7899 54.96 55.7899Z" fill="#151724"/>
<path d="M54.9565 48.6888L50.7987 52.8466L52.8776 54.9255L57.0354 50.7677L54.9565 48.6888Z" fill="#151724"/>
<path d="M57.49 53.71C59.1137 53.71 60.43 52.3937 60.43 50.77C60.43 49.1462 59.1137 47.83 57.49 47.83C55.8663 47.83 54.55 49.1462 54.55 50.77C54.55 52.3937 55.8663 53.71 57.49 53.71Z" fill="#151724"/>
<path d="M55.41 55.7899C57.0337 55.7899 58.35 54.4736 58.35 52.8499C58.35 51.2262 57.0337 49.9099 55.41 49.9099C53.7863 49.9099 52.47 51.2262 52.47 52.8499C52.47 54.4736 53.7863 55.7899 55.41 55.7899Z" fill="#151724"/>
<path d="M53.3399 50.7746L57.4977 54.9324L59.5766 52.8535L55.4188 48.6957L53.3399 50.7746Z" fill="#151724"/>
<defs>
<linearGradient id="paint0_linear_2336_1390" x1="55.19" y1="101.79" x2="55.19" y2="41.21" gradientUnits="userSpaceOnUse">
<stop stop-color="#FF6600"/>
<stop offset="0.34" stop-color="#FF4A00"/>
<stop offset="1" stop-color="#FF2200"/>
</linearGradient>
</defs>
</svg>
