<svg width="138" height="140" viewBox="0 0 138 140" fill="none" xmlns="http://www.w3.org/2000/svg">
<rect x="2" y="2" width="77.6569" height="133.768" rx="10" fill="#C1B0A6" stroke="#1C0803" stroke-width="3" stroke-linejoin="round"/>
<path d="M43.9725 37.0663L41.9096 67.0172L68.4057 46.6517L43.9725 69.7929L76.9791 67.0172L43.9725 73.7703L68.4057 92.9341L41.9096 77.0655L50.1612 127.795L36.7523 77.0655L7.35571 110.133L35.2051 73.7703H7.35571L35.2051 70.6535L11.9973 28.5764L38.2995 67.0172L43.9725 37.0663Z" fill="#1C0803"/>
<line x1="35.0264" y1="11.7881" x2="48.4155" y2="11.7881" stroke="#1C0803" stroke-width="7"/>
<path d="M97.2078 80H132.51L133.484 87.5L125.206 95L126.667 103.5L133.484 109L135.432 119L129.108 132.5L114.979 137L103.292 132.5L97.2078 122V109L102.805 104.5L102.565 96L97.2078 89V80Z" fill="#C1B0A6"/>
<path d="M111.071 23.0872L110.819 22.634L106.903 15.6018L113.11 5.88599H118.294L123.823 15.5012L119.525 22.5667L119.234 23.0461V74.0862H111.071V23.0872Z" fill="#C1B0A6" stroke="#1C0803" stroke-width="4"/>
<path d="M134.753 103C134.753 118.889 135.852 137 115.341 137C94.8311 137 94.8311 118.889 94.8311 103" stroke="#1C0803" stroke-width="6"/>
<path d="M92.1533 106.981C98.7263 106.981 104.055 102.94 104.055 97.9557C104.055 92.9713 98.7263 88.9307 92.1533 88.9307" stroke="#1C0803" stroke-width="7"/>
<path d="M137 106.981C130.427 106.981 125.099 102.94 125.099 97.9557C125.099 92.9713 130.427 88.9307 137 88.9307" stroke="#1C0803" stroke-width="7"/>
<path d="M134.763 93V84C134.763 80.6863 132.077 78 128.763 78H100.831C97.5173 78 94.8311 80.6863 94.8311 84V93" stroke="#1C0803" stroke-width="6"/>
<line x1="114.539" y1="121.594" x2="114.539" y2="89.7025" stroke="#1C0803" stroke-width="7"/>
</svg>
