<svg width="127" height="142" viewBox="0 0 127 142" fill="none" xmlns="http://www.w3.org/2000/svg">
<path d="M55.19 141.845C85.6706 141.845 110.38 117.136 110.38 86.6553C110.38 56.1747 85.6706 31.4653 55.19 31.4653C24.7094 31.4653 0 56.1747 0 86.6553C0 117.136 24.7094 141.845 55.19 141.845Z" fill="#151724"/>
<path d="M87.81 102.785C87.81 119.405 72.56 133.265 55.18 133.265C37.8 133.265 22.55 119.415 22.55 102.785C22.55 86.1553 37.16 72.6853 55.18 72.6853C73.2 72.6853 87.81 86.1653 87.81 102.785Z" fill="url(#paint0_linear_2572_283)"/>
<path d="M47.64 80.0754C55.974 80.0754 62.73 73.8611 62.73 66.1954C62.73 58.5297 55.974 52.3154 47.64 52.3154C39.306 52.3154 32.55 58.5297 32.55 66.1954C32.55 73.8611 39.306 80.0754 47.64 80.0754Z" fill="#EBD8D8"/>
<path d="M62.73 80.0754C71.064 80.0754 77.82 73.8611 77.82 66.1954C77.82 58.5297 71.064 52.3154 62.73 52.3154C54.396 52.3154 47.64 58.5297 47.64 66.1954C47.64 73.8611 54.396 80.0754 62.73 80.0754Z" fill="#EBD8D8"/>
<path d="M80.79 93.6855C80.79 105.286 69.24 116.406 55.1 116.406C40.96 116.406 29.59 105.286 29.59 93.6855C29.59 82.0855 41.05 72.6755 55.19 72.6755C69.33 72.6755 80.79 82.0755 80.79 93.6855Z" fill="#151724"/>
<path d="M44.84 69.2854C47.5462 69.2854 49.74 67.0915 49.74 64.3854C49.74 61.6792 47.5462 59.4854 44.84 59.4854C42.1338 59.4854 39.94 61.6792 39.94 64.3854C39.94 67.0915 42.1338 69.2854 44.84 69.2854Z" fill="#151724"/>
<path d="M65.54 69.2854C68.2462 69.2854 70.44 67.0915 70.44 64.3854C70.44 61.6792 68.2462 59.4854 65.54 59.4854C62.8338 59.4854 60.64 61.6792 60.64 64.3854C60.64 67.0915 62.8338 69.2854 65.54 69.2854Z" fill="#151724"/>
<path d="M74.11 91.4555C74.11 100.195 65.57 108.565 55.12 108.565C44.67 108.565 36.26 100.185 36.26 91.4555C36.26 82.7255 44.73 75.6355 55.18 75.6355C65.63 75.6355 74.1 82.7155 74.1 91.4555H74.11Z" fill="#EBD8D8"/>
<path d="M52.88 85.1754C54.5038 85.1754 55.82 83.8591 55.82 82.2354C55.82 80.6117 54.5038 79.2954 52.88 79.2954C51.2563 79.2954 49.94 80.6117 49.94 82.2354C49.94 83.8591 51.2563 85.1754 52.88 85.1754Z" fill="#151724"/>
<path d="M54.96 87.2555C56.5837 87.2555 57.9 85.9392 57.9 84.3155C57.9 82.6918 56.5837 81.3755 54.96 81.3755C53.3363 81.3755 52.02 82.6918 52.02 84.3155C52.02 85.9392 53.3363 87.2555 54.96 87.2555Z" fill="#151724"/>
<path d="M54.9565 80.1542L50.7987 84.312L52.8776 86.3909L57.0354 82.2331L54.9565 80.1542Z" fill="#151724"/>
<path d="M57.4901 85.1754C59.1138 85.1754 60.43 83.8591 60.43 82.2354C60.43 80.6117 59.1138 79.2954 57.4901 79.2954C55.8663 79.2954 54.55 80.6117 54.55 82.2354C54.55 83.8591 55.8663 85.1754 57.4901 85.1754Z" fill="#151724"/>
<path d="M55.41 87.2555C57.0338 87.2555 58.35 85.9392 58.35 84.3155C58.35 82.6918 57.0338 81.3755 55.41 81.3755C53.7863 81.3755 52.47 82.6918 52.47 84.3155C52.47 85.9392 53.7863 87.2555 55.41 87.2555Z" fill="#151724"/>
<path d="M53.3399 82.2399L57.4977 86.3977L59.5766 84.3188L55.4188 80.161L53.3399 82.2399Z" fill="#151724"/>
<path d="M24.6602 39.3543C30.2446 29.5411 42.7114 19.4629 49.2641 12.3733C51.3933 10.0788 55.3585 6.73592 58.3462 5.79696C63.7862 4.07879 72.1743 5.59277 76.718 9.02671C89.1363 18.4135 98.1023 27.4019 107.381 39.9031C106.689 41.2709 105.14 43.6198 104.447 44.9789C100.468 39.5168 96.6762 36.0003 91.8963 33.7639C90.7787 36.3631 90.2398 42.9229 90.0399 45.7477" fill="url(#paint1_linear_2572_283)"/>
<path d="M102 57.4653C87 48.4653 70.1622 45.5244 58.5 44.9654C35.245 43.8416 14 49.9653 12.5 51.9653C13.5 47.9652 16.6232 41.8904 27.6695 34.6382C32.768 31.293 41.9442 28.5187 48.1352 27.9212C65.5148 26.2409 82.3196 28.7956 91.0267 42.6454C92.2109 44.5395 102 46.4653 102 57.4653Z" fill="white"/>
<path d="M116.151 33.4412C117.322 33.6711 119.187 34.5732 120.216 35.1729C123.2 36.911 125.103 40.3557 124.983 43.8101C124.44 43.4735 123.896 43.137 123.352 42.7918C125.623 46.8673 123.987 52.6329 119.911 54.9042C120.336 54.475 120.312 53.6924 119.868 53.2949C118.813 56.0108 115.978 57.817 113.07 58.0603C110.161 58.3036 106.751 57.5877 104.483 55.7614C102.037 53.7936 100.448 50.653 99.9187 47.56C99.2723 43.8232 100.699 41.0752 101.616 39.5746C102.669 37.8441 105.366 31.3414 116.15 33.4326L116.151 33.4412Z" fill="white"/>
<defs>
<linearGradient id="paint0_linear_2572_283" x1="55.19" y1="133.255" x2="55.19" y2="72.6753" gradientUnits="userSpaceOnUse">
<stop stop-color="#FF6600"/>
<stop offset="0.34" stop-color="#FF4A00"/>
<stop offset="1" stop-color="#FF2200"/>
</linearGradient>
<linearGradient id="paint1_linear_2572_283" x1="66.7792" y1="48.2355" x2="63.0362" y2="5.03736" gradientUnits="userSpaceOnUse">
<stop stop-color="#FF6600"/>
<stop offset="0.34" stop-color="#FF4A00"/>
<stop offset="1" stop-color="#FF2200"/>
</linearGradient>
</defs>
</svg>
